<!-- Generated by IcoMoon.io -->
<svg version="1.1" xmlns="http://www.w3.org/2000/svg" width="1024" height="1024" viewBox="0 0 1024 1024">
<title></title>
<g id="icomoon-ignore">
</g>
<path d="M344.159 28.72c88.156-30.722 184.826-36.454 276.062-16.75 80.046 17.296 155.844 54.124 218.643 106.698 61.595 51.008 111.091 116.59 142.9 189.977 35.609 81.297 48.965 172.025 39.065 260.185-9.109 83.287-39.469 164.097-87.121 232.973-40.135 58.024-92.241 107.761-152.199 144.944-72.972 45.41-157.574 71.962-243.433 76.059-64.492 3.456-129.516-6.031-190.631-26.869 0.063-160.644-0.027-321.284 0.063-481.943-0.595-39.001 13.331-78.065 38.687-107.761 21.403-25.48 50.659-44.213 82.768-52.909 29.919-7.983 62.116-7.571 91.702 1.727 42.549 12.917 79.059 44.159 98.678 84.034 13.196 26.274 18.857 56.194 16.59 85.482-2.462 35.069-16.905 69.111-40.121 95.474-26.679 30.786-65.213 51.036-105.754 55.284-31.621 3.646-63.97-2.701-92.431-16.715 0.154 31.424 0.127 62.827 0 94.25 76.428 24.259 163.927 8.676 227.313-40.441 35.006-26.742 62.981-62.691 79.955-103.366 29.892-70.497 25.014-154.683-13.259-221.093-35.392-62.891-98.841-109.21-169.723-123.134-51.513-10.39-106.297-4.303-154.117 17.551-60.118 27.057-108.552 78.676-131.811 140.326-11.377 29.702-16.778 61.604-16.409 93.381-0.154 146.763 0.090 293.507-0.098 440.269-72.126-40.982-134.174-99.624-178.867-169.552-51.008-78.913-79.262-172.344-80.516-266.314-2.016-100.542 26.841-201.436 81.738-285.703 61.441-95.171 155.187-169.14 262.326-206.097zM258.704 175.301c-71.972 53.934-126.177 131.425-151.388 217.825-24.457 82.341-22.666 172.281 5.249 253.524 13.141 39.354 32.999 76.176 56.553 110.245 0.544-66.878 0.090-133.756 0.225-200.634 0.252-27.398-0.972-54.891 2.134-82.153 8.153-75.897 43.062-148.498 96.962-202.488 52.61-53.807 123.625-89.191 198.239-98.88 77.283-10.454 157.986 6.41 224.333 47.517 64.079 39.218 114.672 100.002 141.298 170.299 31.683 82.32 29.479 177.012-6.066 257.736-29.124 67.319-80.704 124.575-144.404 160.9-73.034 42.241-161.946 55.41-244.19 36.895 0.098 26.778 0.127 53.583 0 80.361 68.417 12.817 139.976 7.696 206.070-14.050 65.906-21.719 126.213-60.055 173.953-110.406 56.067-58.706 94.726-133.972 109.182-213.893 16.562-89.66 3.228-184.749-38.459-265.909-33.728-66.976-85.951-124.358-148.995-164.872-68.164-44.021-149.327-67.444-230.464-66.662-89.66 0.341-178.803 30.55-250.256 84.686zM500.635 438.663c-21.243 3.177-40.604 16.157-51.883 34.412-16.121 25.416-14.354 60.645 4.429 84.197 13.986 18.325 36.86 29.443 59.93 28.885 23.321-0.225 46.258-12.259 59.586-31.424 10.39-14.806 15.274-33.475 12.979-51.477-2.397-20.676-13.826-40.226-31.080-51.953-15.491-10.963-35.202-15.527-53.961-12.638z"></path>
</svg>
